<svg width="32" height="32" xmlns="http://www.w3.org/2000/svg"><g fill="none" fill-rule="evenodd"><path d="M21.172 30.828c2.984 2.985 7.957-.089 6.623-4.093l-8-24c-1.216-3.647-6.374-3.647-7.59 0l-8 24c-1.334 4.004 3.639 7.078 6.623 4.093L16 25.657l5.172 5.171Z" opacity=".1" fill="#000"/><path d="M21.879 30.121c2.238 2.239 5.968-.066 4.967-3.07l-8-24c-.912-2.735-4.78-2.735-5.692 0l-8 24c-1.001 3.004 2.729 5.309 4.967 3.07L16 24.243l5.879 5.878Z" fill="#FFF"/><path fill="#3896FC" d="m16 4 8 24-8-8-8 8z"/></g></svg>