<svg xmlns="http://www.w3.org/2000/svg" width="80" height="80"><g fill="none" fill-rule="evenodd"><g stroke="#888" stroke-width="4"><path d="M50 40h21M61 28.687l11.313 11.314L61 51.314"/></g><g fill="#888" transform="translate(6 22)"><path d="M0 22h40v4H0z"/><path d="M38 18h2v7h-2z"/><circle cx="39" cy="18" r="1"/><circle cx="1" cy="18" r="1"/><path d="M0 18h2v7H0zM3.102 34.172C1.631 32.34.552 30.263 0 28.027c3.014.015 38.019-.015 40 0-.553 2.235-1.634 4.31-3.107 6.143A11.368 11.368 0 0 1 35 33s-2.5 2-5 2-5-2-5-2-2.5 2-5 2-5-2-5-2-2.5 2-5 2-5-2-5-2-.777.622-1.898 1.172Z"/><path fill-opacity=".5" d="M0 37c2.5 0 5-2 5-2s2.5 2 5 2 5-2 5-2 2.5 2 5 2 5-2 5-2 2.5 2 5 2 5-2 5-2 2.5 2 5 2v4H0v-4Z"/><path d="m10.666 7.875 2-5.906H27.33l2 5.906H10.666Zm16.664 6.563c-1.104 0-2-.882-2-1.97 0-1.087.896-1.968 2-1.968 1.105 0 2 .881 2 1.969 0 1.087-.895 1.969-2 1.969Zm-14.664 0c-1.104 0-2-.882-2-1.97 0-1.087.896-1.968 2-1.968s2 .881 2 1.969c0 1.087-.896 1.969-2 1.969ZM29.223 1.312C28.957.552 28.21 0 27.33 0H12.666c-.88 0-1.626.551-1.893 1.313L8 9.188v10.5C8 20.412 8.597 21 9.333 21h1.333c.737 0 1.333-.588 1.333-1.313v-1.312h15.998v1.313c0 .724.597 1.312 1.333 1.312h1.333c.736 0 1.333-.588 1.333-1.313v-10.5l-2.773-7.874Z"/></g></g></svg>