<svg width="26" height="26" xmlns="http://www.w3.org/2000/svg"><defs><radialGradient cx="50%" cy="50%" fx="50%" fy="50%" r="49.821%" id="a"><stop offset="0%"/><stop stop-opacity=".203" offset="82.504%"/><stop stop-opacity="0" offset="100%"/></radialGradient></defs><g fill-rule="nonzero" fill="none"><circle fill-opacity=".5" fill="url(#a)" cx="13" cy="13" r="13"/><path d="M13 22a9 9 0 1 1 0-18 9 9 0 0 1 0 18Z" fill="#FFF"/><path d="M13 3a9.999 9.999 0 1 0-.002 19.998A9.999 9.999 0 0 0 13 3Zm0 2v4h3.992v4h4v-.156c.001.052.008.103.008.156a7.94 7.94 0 0 1-1.082 3.998H17v-3.992h-4V17H9.004v2.92A8.05 8.05 0 0 1 6.082 17h2.916v-4H5a7.94 7.94 0 0 1 1.08-3.996H9V13h4V9H9.002V6.082A7.94 7.94 0 0 1 13 5Zm4 1.082A8.051 8.051 0 0 1 19.918 9H17V6.082Zm-3.996 10.924h3.994v2.912A7.94 7.94 0 0 1 13.004 21v-3.994Z" fill="#555"/></g></svg>