<svg xmlns="http://www.w3.org/2000/svg" width="80" height="80"><g fill="none" fill-rule="evenodd"><path stroke="#888" stroke-width="6" d="M40 74V50M54.16 62.018 40.018 47.876 25.876 62.018"/><path fill="#888" fill-opacity=".5" d="M58.764 32H74v6H58.743c-.666 3.863-2.6 7.446-5.477 10.294a20.472 20.472 0 0 1-4.056 3.117l-4.453-4.453C43.21 47.635 41.587 48 40 48c-1.577 0-3.194-.361-4.732-1.032l-4.455 4.456a20.47 20.47 0 0 1-4.044-3.096C23.872 45.476 21.926 41.88 21.257 38H6v-6h15.236a18.943 18.943 0 0 1 5.262-10.368A18.946 18.946 0 0 1 37 16.236V6h6v10.236a18.945 18.945 0 0 1 10.483 5.377A18.943 18.943 0 0 1 58.763 32ZM39.557 53.994l.46-.461.461.46a16.453 16.453 0 0 1-.921.001ZM40 48c-3.167 0-6.492-1.456-9.021-3.947C28.454 41.567 27 38.338 27 35c0-3.475 1.366-6.726 3.762-9.147A12.948 12.948 0 0 1 40 22c3.514 0 6.798 1.396 9.225 3.84A12.947 12.947 0 0 1 53 35c0 3.327-1.444 6.545-3.954 9.03C46.514 46.533 43.178 48 40 48Z"/></g></svg>