<svg xmlns="http://www.w3.org/2000/svg" width="80" height="80"><g fill="none" fill-rule="evenodd"><path stroke="#888" stroke-width="6" d="M40 32.5V7.982 32.5ZM54.16 22 40.018 7.858 25.876 22"/><path fill="#888" fill-opacity=".5" d="M58.743 47.997c-.666 3.864-2.6 7.447-5.477 10.294C50.4 61.127 46.774 63.05 43 63.727v10.27h-6v-10.27c-3.759-.675-7.37-2.584-10.23-5.401-2.898-2.853-4.844-6.45-5.513-10.329H6v-6h15.236a18.943 18.943 0 0 1 5.262-10.368A18.953 18.953 0 0 1 36 26.42v6.204a13.013 13.013 0 0 1 4-.627c1.381 0 2.728.216 4 .627V26.42c3.594.77 6.881 2.57 9.483 5.19a18.943 18.943 0 0 1 5.28 10.387H74v6H58.743ZM40 57.997c-3.167 0-6.492-1.456-9.021-3.946C28.454 51.564 27 48.335 27 44.997c0-3.475 1.366-6.726 3.762-9.146A12.948 12.948 0 0 1 40 31.997c3.514 0 6.798 1.397 9.225 3.84A12.947 12.947 0 0 1 53 44.998c0 3.327-1.444 6.545-3.954 9.03-2.532 2.504-5.868 3.97-9.046 3.97Z"/></g></svg>